<?xml version="1.0" encoding="UTF-8"?>
<svg version="1.1" viewBox="0 0 24 24" xml:space="preserve" xmlns="http://www.w3.org/2000/svg">
    <title>Unity Engine logo I yoinked from the official website and did some bullshit to make it render</title>
    <style>
        path { fill: black; }
        @media (prefers-color-scheme: dark) {
            path { fill: white; }
        }
    </style>
    <path d="m 12.8497 1 v 3.9324 l 3.4868 2.0108 c 0.0279 0.0167 0.0501 0.0446 0.0668 0.0724 c 0.0223 0.0278 0.0279 0.0613 0.0279 0.0947 c 0 0.0334 -0.0056 0.0668 -0.0279 0.1003 c -0.0167 0.0278 -0.039 0.0501 -0.0668 0.0724 l -4.1441 2.384 c -0.0557 0.039 -0.1281 0.0557 -0.195 0.0557 c -0.0668 0 -0.1337 -0.0167 -0.195 -0.0557 l -4.1441 -2.384 c -0.0279 -0.0167 -0.0501 -0.0446 -0.0668 -0.0724 c -0.0167 -0.0279 -0.0279 -0.0613 -0.0279 -0.0947 c 0 -0.0334 0.0111 -0.0668 0.0279 -0.1003 c 0.0167 -0.0279 0.039 -0.0501 0.0668 -0.0724 l 3.4868 -2.0052 v -3.938 l -8.8953 5.13 v 10.2544 l 3.4144 -1.9662 v -4.0215 c 0 -0.0334 0.0056 -0.0668 0.0223 -0.0947 c 0.0167 -0.0279 0.0446 -0.0501 0.0724 -0.0724 c 0.0278 -0.0167 0.0613 -0.0223 0.1003 -0.0223 c 0.0334 0 0.0668 0.0056 0.0947 0.0223 l 4.1441 2.3895 c 0.0613 0.0334 0.1114 0.0836 0.1448 0.1448 c 0.0334 0.0557 0.0501 0.1225 0.0501 0.1949 v 4.7735 c 0 0.0334 -0.0056 0.0668 -0.0278 0.1003 c -0.0167 0.0279 -0.039 0.0557 -0.0668 0.0724 c -0.0334 0.0167 -0.0668 0.0223 -0.1003 0.0223 c -0.0334 0 -0.0668 -0.0056 -0.0947 -0.0223 l -3.4868 -2.0108 l -3.4144 1.9662 l 8.8953 5.13 l 8.8953 -5.13 l -3.4144 -1.9662 l -3.4868 2.0108 c -0.0278 0.0167 -0.0613 0.0223 -0.0947 0.0223 c -0.0334 0 -0.0668 -0.0111 -0.0947 -0.0279 c -0.0334 -0.0167 -0.0557 -0.039 -0.0724 -0.0668 c -0.0167 -0.0334 -0.0279 -0.0668 -0.0279 -0.1003 v -4.7735 c 0 -0.0724 0.0167 -0.1393 0.0501 -0.1949 c 0.039 -0.0613 0.0836 -0.1114 0.1448 -0.1448 l 4.1441 -2.3895 c 0.0278 -0.0167 0.0613 -0.0223 0.0947 -0.0223 c 0.0334 0 0.0668 0.0056 0.1003 0.0223 c 0.0278 0.0223 0.0501 0.0446 0.0668 0.0724 c 0.0223 0.0279 0.0279 0.0613 0.0279 0.1003 v 4.016 l 3.4144 1.9662 v -10.2544 l -8.8953 -5.13 z"></path>
</svg>